<?xml version="1.0" encoding="UTF-8" standalone="no"?>
<svg
   xmlns:dc="http://purl.org/dc/elements/1.1/"
   xmlns:cc="http://creativecommons.org/ns#"
   xmlns:rdf="http://www.w3.org/1999/02/22-rdf-syntax-ns#"
   xmlns:svg="http://www.w3.org/2000/svg"
   xmlns="http://www.w3.org/2000/svg"
   xmlns:sodipodi="http://sodipodi.sourceforge.net/DTD/sodipodi-0.dtd"
   xmlns:inkscape="http://www.inkscape.org/namespaces/inkscape"
   version="1.1"
   x="0px"
   y="0px"
   viewBox="0 0 90.386002 93.206001"
   enable-background="new 0 0 100 100"
   xml:space="preserve"
   id="svg30"
   sodipodi:docname="logo.svg"
   width="90.386002"
   height="93.206001"
   inkscape:version="0.92.4 (5da689c313, 2019-01-14)"><metadata
     id="metadata36"><rdf:RDF><cc:Work
         rdf:about=""><dc:format>image/svg+xml</dc:format><dc:type
           rdf:resource="http://purl.org/dc/dcmitype/StillImage" /><dc:title></dc:title></cc:Work></rdf:RDF></metadata><defs
     id="defs34" /><sodipodi:namedview
     pagecolor="#ffffff"
     bordercolor="#666666"
     borderopacity="1"
     objecttolerance="10"
     gridtolerance="10"
     guidetolerance="10"
     inkscape:pageopacity="0"
     inkscape:pageshadow="2"
     inkscape:window-width="1920"
     inkscape:window-height="1001"
     id="namedview32"
     showgrid="false"
     fit-margin-top="0"
     fit-margin-left="0"
     fit-margin-right="0"
     fit-margin-bottom="0"
     inkscape:zoom="6.464"
     inkscape:cx="44.676"
     inkscape:cy="33.647742"
     inkscape:window-x="-9"
     inkscape:window-y="-9"
     inkscape:window-maximized="1"
     inkscape:current-layer="svg30" /><path
     d="m 78.192,17.12 c 7.563,8.08 12.194,18.943 12.194,30.883 0,24.959 -20.234,45.203 -45.193,45.203 C 20.234,93.206 0,72.991 0,48.033 c 0,-7.598 1.875,-14.716 5.186,-21 l 0.003,0.057 c -0.164,1.22 -0.249,2.492 -0.249,3.757 0,6.928 2.537,14.309 6.731,18.309 H 11.669 C 10.023,45.156 9.117,40.748 9.117,36.141 9.118,22.488 17.08,10.157 28.614,5.157 h -0.001 c -6.814,5 -11.14,14.207 -11.14,23.839 0,17.386 14.095,31.247 31.482,31.247 17.388,0 31.483,-14.073 31.483,-31.459 0,-4.13 -0.795,-8.062 -2.241,-11.675 m -2.075,7.929 C 74.852,36.58 65.069,45.557 53.19,45.557 40.448,45.557 30.119,35.228 30.119,22.487 30.119,11.527 37.762,2.351 48.01,0 L 47.96,0.01 C 33.23,0.475 21.431,12.564 21.431,27.408 c 0,15.138 12.271,27.409 27.409,27.409 15.14,0 27.412,-12.271 27.412,-27.409 0,-0.844 -0.039,-1.678 -0.113,-2.502 M 37.407,30.64 c 3.032,6.443 9.582,10.91 17.175,10.91 10.478,0 18.972,-8.133 18.972,-18.609 0,-1.788 -0.247,-2.784 -0.711,-4.784 h 0.003 c -2.626,9 -11.665,16.854 -22.41,16.854 -4.8,0 -9.259,-1.663 -12.958,-4.162"
     id="path24"
     inkscape:connector-curvature="0" /></svg>